<?xml version="1.0" encoding="utf-8"?>
<!-- Generator: Adobe Illustrator 25.1.0, SVG Export Plug-In . SVG Version: 6.00 Build 0)  -->
<svg version="1.1" id="Capa_1" xmlns="http://www.w3.org/2000/svg" xmlns:xlink="http://www.w3.org/1999/xlink" x="0px" y="0px"
	 viewBox="0 0 93.2 103.6" style="enable-background:new 0 0 93.2 103.6;" xml:space="preserve">
<style type="text/css">
	.st0{fill-rule:evenodd;clip-rule:evenodd;fill:#FFFFFF;}
	.st1{opacity:0.1;fill-rule:evenodd;clip-rule:evenodd;enable-background:new    ;}
</style>
<polygon class="st0" points="66.8,45 53.5,49.5 62.1,54.1 54.8,55.9 31.4,43.6 38.7,41.5 47.2,46.1 43.4,34.7 37.7,32.1 2,42.6 
	50.5,66.7 90,55.2 "/>
<polygon class="st0" points="39.2,9.6 51.1,46.6 77.5,37.7 64.6,0 "/>
<polygon class="st0" points="0,45 0,76.7 49,103.6 92.4,87.3 93.2,57.3 49.5,70 "/>
<polygon class="st1" points="31.4,43.6 50.5,66.7 60,99.4 92.4,87.3 93.2,56.6 66.8,45 53.5,49.5 62.1,54.1 54.8,55.9 "/>
</svg>
