<?xml version="1.0" encoding="utf-8"?>
<!-- Generator: Adobe Illustrator 25.1.0, SVG Export Plug-In . SVG Version: 6.00 Build 0)  -->
<svg version="1.1" id="Capa_1" xmlns="http://www.w3.org/2000/svg" xmlns:xlink="http://www.w3.org/1999/xlink" x="0px" y="0px"
	 viewBox="0 0 91.4 91.4" style="enable-background:new 0 0 91.4 91.4;" xml:space="preserve">
<style type="text/css">
	.st0{fill:#FFFFFF;}
</style>
<path class="st0" d="M45.7,0C20.4,0,0,20.5,0,45.7c0,25.2,20.5,45.7,45.7,45.7c25.2,0,45.7-20.5,45.7-45.7C91.4,20.4,70.9,0,45.7,0
	L45.7,0L45.7,0z M55.2,70.8c-2.4,0.9-4.2,1.6-5.6,2.1c-1.6,0.5-3.2,0.8-4.9,0.7c-2.4,0.1-4.8-0.6-6.7-2.1c-1.5-1.3-2.4-3.3-2.4-5.3
	c0-0.9,0.1-1.7,0.2-2.5c0.1-0.9,0.3-1.8,0.6-2.9l3-10.4c0.3-1,0.5-1.9,0.7-2.8c0.2-0.8,0.3-1.6,0.3-2.5c0.1-1-0.2-2-0.8-2.8
	c-0.9-0.6-2-0.9-3.1-0.8c-0.8,0-1.6,0.1-2.3,0.3c-0.8,0.2-1.5,0.5-2,0.7l0.8-3.2c1.9-0.8,3.8-1.5,5.5-2c1.6-0.5,3.3-0.8,5-0.8
	c2.4-0.1,4.7,0.6,6.5,2.1c1.5,1.3,2.4,3.3,2.3,5.3c0,0.5-0.1,1.2-0.2,2.4c-0.1,1.1-0.3,2.1-0.6,3.1l-2.9,10.4
	c-0.2,0.8-0.5,1.8-0.7,2.8c-0.2,0.8-0.3,1.6-0.3,2.4c-0.1,1,0.2,2.1,0.9,2.8c1,0.6,2.1,0.9,3.2,0.8c0.8,0,1.6-0.1,2.4-0.4
	c0.7-0.2,1.4-0.4,2-0.7L55.2,70.8z M54.7,28.7c-2.8,2.5-7.1,2.5-9.9,0c-2.6-2.3-2.8-6.2-0.5-8.8c0.1-0.2,0.3-0.3,0.5-0.5
	c2.8-2.5,7.1-2.5,9.9,0c2.6,2.3,2.7,6.3,0.4,8.9C55,28.5,54.8,28.6,54.7,28.7z"/>
</svg>
