<?xml version="1.0" encoding="utf-8"?>
<!-- Generator: Adobe Illustrator 25.2.1, SVG Export Plug-In . SVG Version: 6.00 Build 0)  -->
<svg version="1.1" id="Capa_1" xmlns="http://www.w3.org/2000/svg" xmlns:xlink="http://www.w3.org/1999/xlink" x="0px" y="0px"
	 viewBox="0 0 126 91.8" style="enable-background:new 0 0 126 91.8;" xml:space="preserve">
<style type="text/css">
	.st0{fill:#FFFFFF;}
	.st1{fill-rule:evenodd;clip-rule:evenodd;fill:#FFFFFF;}
	.st2{fill-rule:evenodd;clip-rule:evenodd;fill:#BEBEC6;}
	.st3{fill-rule:evenodd;clip-rule:evenodd;fill:#DB0A15;}
	.st4{fill-rule:evenodd;clip-rule:evenodd;fill:#DB2829;}
</style>
<g>
	<g>
		<g>
			<rect x="36.8" class="st0" width="50.1" height="41.4"/>
			<polygon class="st1" points="61.5,62.5 53.6,33.8 57.4,29.8 59.9,37.5 64.1,38.3 67.1,34.2 72.1,37.4 75.6,34.1 71.8,13.7 
				77.3,12.2 88.4,55.8 61.5,62.5 			"/>
			<path class="st2" d="M36.8,52.2h21.9l-5.1-18.4l0.3-0.3l-5.6-2.4l-6.3,3.1L38,9.9l0.2-9.7L36.6,0L36.8,52.2L36.8,52.2z
				 M87.5,52.2h1.6L88.8,0H76.4H75l5.5,6.3l-2,8.3L78.2,16L87.5,52.2L87.5,52.2z M75.1,31.3l-0.8,4.1l1.4-1.3L75.1,31.3L75.1,31.3z
				 M73.1,36.4l-2,0.3l1,0.7L73.1,36.4L73.1,36.4z M64.5,37.8l-0.6,0.1l-4.5-1.9l0.5,1.6l4.2,0.8L64.5,37.8L64.5,37.8z"/>
			<path d="M29.5,59.1c-3.2-3.4-7.3-5.1-12.4-5.1c-5.1,0-9.2,1.7-12.4,5.1C1.6,62.6,0,67.1,0,72.6c0,5.5,1.6,10,4.7,13.5
				c3.2,3.4,7.3,5.1,12.4,5.1c5.1,0,9.2-1.7,12.4-5.1c3.2-3.4,4.7-7.9,4.7-13.5C34.2,67.1,32.6,62.6,29.5,59.1L29.5,59.1z
				 M125.9,80.8h-10.5v-3.4h9.3v-9.8h-9.3V64h10.2V54h-22.2v37.3h22.5V80.8L125.9,80.8z M97.5,57.7c-2.4-2.5-5.4-3.8-9.1-3.8H88
				l0.5,1.9l-16.3,4v31.4h12V80h6.2c3.2,0,5.8-1.2,7.8-3.5c2-2.3,2.9-5.4,2.9-9.2C101.1,63.5,99.9,60.2,97.5,57.7L97.5,57.7z
				 M88.7,69.6L88.7,69.6c-0.6,0.6-1.4,1-2.4,1h-2.2V64h2.7c0.8,0,1.5,0.3,2,0.9c0.5,0.6,0.8,1.3,0.8,2.1
				C89.6,68.1,89.3,69,88.7,69.6L88.7,69.6z M59.1,54h-0.5v18.8L48.4,54H36.7v37.3h11.7L48.3,73l9.9,18.2h11.9V60.4l-8.6,2.1
				L59.1,54L59.1,54z M21.1,77.8L21.1,77.8c-1,1.3-2.4,2-4,2c-1.6,0-3-0.7-4.1-2c-1.1-1.3-1.6-3-1.6-5.1c0-2.1,0.5-3.8,1.6-5.2
				c1.1-1.4,2.4-2.1,4.1-2.1c1.6,0,2.9,0.7,4,2c1,1.3,1.6,3.1,1.6,5.2C22.6,74.7,22.1,76.4,21.1,77.8L21.1,77.8z"/>
			<path class="st3" d="M36.8,0v17.8c0,0,0.5,4,1.8,9.1c1.3,5.1,1.8,9.6,6.1,8.9c0,0,2.8-0.3,3.3-2.1c0,0,2.6,1.6,5.2,0.9
				c2.5-0.7,3.6-2.6,3.6-2.6s1.3,4.9,1.8,6.2c0.6,1.2,3,2.1,4.9,1.6c1.9-0.4,4.1-3.3,4.1-3.3s2.3,3.2,6,1.7c0,0,3.8-1.7,3.2-4.4
				c-0.6-2.7-5.6-23.6-5.6-23.6l-3.3,1l5.2,20.9c0,0,0.9,3-1,3.5c0,0-1.7,0.4-2.2-1.2c-0.5-1.5-3.9-15.7-3.9-15.7l-3.7,1.1l2.8,12.1
				c0,0,1.1,3.6-1.3,4.4c0,0-2.9,1-3.7-2.4C59.4,30.5,56.9,21,56.9,21l-3.9,1l1.3,4.5c0,0,1,3.5-1.2,4.4c-2.2,0.9-3.4-0.7-3.6-1.7
				C49.2,28.4,48,23,48,23l-3.4,0.6l1.3,5.7c0,0,0.6,2.1-0.9,2.5c-1.5,0.4-2-1.3-2.2-1.9c-0.2-0.6-2.4-7.3-2.9-9.8
				C39.4,17.6,38.2,9,38.1,7.3C38.1,5.6,37.8,3,38.6,0H36.8L36.8,0z"/>
			<path class="st4" d="M77.3,12.2l1.5,5.9c0,0,5.3-6.9,3.3-12.6c0,0-1.2-3.3-3.3-5.5h-4.6c0.1,0.1,4.5,4.4,4.3,7.9
				C78.4,11.4,77.3,12.2,77.3,12.2L77.3,12.2z"/>
		</g>
	</g>
</g>
</svg>
