<?xml version="1.0" encoding="utf-8"?>
<!-- Generator: Adobe Illustrator 25.0.0, SVG Export Plug-In . SVG Version: 6.00 Build 0)  -->
<svg version="1.1" id="Capa_1" xmlns="http://www.w3.org/2000/svg" xmlns:xlink="http://www.w3.org/1999/xlink" x="0px" y="0px"
	 viewBox="0 0 339.5 172.8" style="enable-background:new 0 0 339.5 172.8;" xml:space="preserve">
<style type="text/css">
	.st0{clip-path:url(#SVGID_2_);fill:#FFFFFF;}
	.st1{opacity:0.3;clip-path:url(#SVGID_4_);fill:#869DC5;enable-background:new    ;}
	.st2{opacity:0.3;clip-path:url(#SVGID_6_);fill:#FFFFFF;enable-background:new    ;}
	.st3{fill:#869DC5;}
	.st4{fill:#254D92;}
	.st5{enable-background:new    ;}
	.st6{fill:#DB342A;}
</style>
<g>
	<g>
		<g>
			<g>
				<defs>
					<rect id="SVGID_1_" width="339.6" height="172.8"/>
				</defs>
				<clipPath id="SVGID_2_">
					<use xlink:href="#SVGID_1_"  style="overflow:visible;"/>
				</clipPath>
				<path class="st0" d="M-27.5-18.6c34.8-20,72-31.5,115-31.5C218.4-50.1,324.6,56,324.6,187h-352V-18.6H-27.5z"/>
			</g>
		</g>
		<g>
			<g>
				<defs>
					<rect id="SVGID_3_" x="222.1" width="117.4" height="172.8"/>
				</defs>
				<clipPath id="SVGID_4_">
					<use xlink:href="#SVGID_3_"  style="overflow:visible;"/>
				</clipPath>
				<path class="st1" d="M294.4,172.8c0.5-18.8-3.6-35.6-10.1-52.3c-7.2-18.5-16.6-36-28.1-52C247,55.6,236.4,43.6,224.8,33
					l11.9-14.8c12.5,11.5,24,24.5,34,38.5C283.1,74,293.3,93,301.1,113c7.4,19.1,11.7,40.4,11.7,59.8"/>
			</g>
			<g>
				<defs>
					<rect id="SVGID_5_" x="222.1" width="117.4" height="172.8"/>
				</defs>
				<clipPath id="SVGID_6_">
					<use xlink:href="#SVGID_5_"  style="overflow:visible;"/>
				</clipPath>
				<path class="st2" d="M260.6,0c14.6,13.8,27.7,29.3,39,46.1c20.1,29.8,31.8,63.6,39.8,99.4l-20.8,4.9
					c-7.3-32.4-20.2-62.5-38.4-89.4c-11.4-16.8-24.7-32.2-39.7-45.8c-6-5.4-12.2-10.5-18.6-15.2"/>
			</g>
		</g>
		<polygon class="st3" points="137.7,29.9 128.4,27.7 128.4,17.5 137.7,19.7 		"/>
		<g>
			<path class="st4" d="M67.9,36.4c-8.6,12.6-13.3,28-13.2,43.7c0,3.6,0.3,7.2,0.8,10.8l6.1-1.1c-0.5-3.2-0.7-6.5-0.7-9.7
				C60.7,65.8,65,51.8,72.8,40.4L67.9,36.4z"/>
			<path class="st4" d="M106.2,153.2c16.2,5.5,34.2,4.3,49.6-3.5l-2.7-5.9c-14,7-30.2,8.1-45,3.1L106.2,153.2z"/>
			<path class="st3" d="M86.7,27.1l2.9,4c-8,6.5-14.3,15.1-18.1,25c-2.1,5.3-3.4,10.9-4,16.6l-4.7-0.6c0.6-6.2,2.1-12.3,4.3-18
				C71.3,43.6,78.1,34.2,86.7,27.1"/>
			<path class="st3" d="M136.5,142.4l0.8,5c-18.5,3.4-37.1-2.3-51.1-15.6l3.1-3.8C102.3,140.3,119.4,145.5,136.5,142.4"/>
			<path class="st3" d="M170.1,29.7c3.2,3,6.2,6.3,8.8,10c3.2,4.5,5.9,9.4,7.9,14.6c2.3,5.8,3.7,11.9,4.3,18.2
				c0.4,4.4,0.5,8.9,0.1,13.3l-4.7-0.5c0.4-4,0.3-8.2-0.1-12.3c-0.6-5.8-1.9-11.5-4-16.8c-1.9-4.8-4.3-9.3-7.3-13.4
				c-2.4-3.3-5.1-6.4-8.1-9.2L170.1,29.7z"/>
			<path class="st4" d="M191.3,63.9c-1.9-8.4-5.2-16.2-9.9-23.1c-2.9-4.4-6.4-8.3-10.3-11.8c-2.4-2.2-4.9-4.1-7.6-5.9l3.1-5.7
				c3,1.9,5.8,4.1,8.4,6.5c4.3,3.8,8.1,8.2,11.3,13c5.2,7.7,8.9,16.3,11,25.6L191.3,63.9z"/>
			<polygon class="st3" points="104.9,28.4 112.6,22.3 112.6,61 104.9,54.9 			"/>
			<path class="st4" d="M132.1,38.4c-0.4,0-0.7,0.2-0.9,0.6c-0.2,0.4-0.3,1-0.3,1.7v3.7c0,0.8,0.1,1.4,0.3,1.8
				c0.2,0.4,0.5,0.6,0.9,0.5c0.4,0,0.7-0.2,0.9-0.6c0.2-0.4,0.3-1,0.3-1.7v-3.6c0-0.7-0.1-1.3-0.3-1.7S132.5,38.4,132.1,38.4"/>
			<path class="st4" d="M114.1,22.3V61l37.1-6.1V28.4L114.1,22.3z M127,49.2l-8.9,0.7v-2.2l4.2-4.9c0.5-0.6,0.9-1.2,1.2-1.7
				c0.2-0.5,0.4-0.9,0.4-1.3c0-0.5-0.1-1-0.3-1.3c-0.2-0.3-0.6-0.5-1.1-0.5s-0.8,0.2-1.1,0.6c-0.3,0.4-0.4,0.9-0.4,1.6l-3.1-0.1V40
				c0-1.3,0.4-2.5,1.3-3.3c0.9-0.9,2-1.2,3.4-1.1c1.4,0.1,2.4,0.5,3.2,1.3c0.7,0.8,1.1,1.8,1.1,3c0,0.8-0.2,1.6-0.6,2.2
				c-0.4,0.7-1.1,1.6-2.2,2.9l-1.6,2.1l0,0l4.8-0.2v2.3H127z M135.6,44.2c0,1.4-0.3,2.6-0.9,3.4c-0.6,0.9-1.5,1.3-2.5,1.4
				c-1.1,0.1-2-0.3-2.7-1.1s-1.1-2-1.1-3.6v-3.4c0-1.6,0.4-2.7,1.1-3.6c0.7-0.8,1.6-1.2,2.7-1.1c1.1,0.1,1.9,0.5,2.6,1.4
				c0.6,0.8,0.9,2,0.9,3.4v3.2H135.6z M142.7,48l-6,0.5v-1.8l2.8-4c0.4-0.5,0.6-1,0.8-1.4s0.2-0.8,0.2-1.1c0-0.4-0.1-0.8-0.2-1
				c-0.1-0.3-0.4-0.4-0.7-0.4s-0.6,0.1-0.7,0.5c-0.2,0.3-0.3,0.8-0.3,1.3h-2.1l0,0c0-1.1,0.3-2,0.8-2.7c0.6-0.7,1.3-1,2.2-1
				c0.9,0.1,1.6,0.4,2.1,1s0.7,1.4,0.7,2.5c0,0.7-0.1,1.3-0.4,1.8c-0.3,0.5-0.8,1.3-1.5,2.4l-1,1.7l0,0l3.2-0.2L142.7,48L142.7,48z
				 M147.4,47.6l-1.7,0.1v-7.2l-1.5-0.1v-1.9l3.2-1.3V47.6z"/>
		</g>
		<g class="st5">
			<path class="st4" d="M89.7,76.2h-7.3v7.1h8.3V84h-8.9V68.4h8.9V69h-8.3v6.7h7.3V76.2z"/>
			<path class="st4" d="M93.9,84h-0.5V67.5h0.5V84z"/>
			<path class="st4" d="M101.3,84.2c-0.9,0-1.7-0.3-2.4-0.8c-0.7-0.5-1.3-1.2-1.7-2.1s-0.6-1.8-0.6-2.9V78c0-1.1,0.2-2,0.6-2.9
				c0.4-0.9,1-1.6,1.7-2.1c0.7-0.5,1.5-0.7,2.3-0.7c1.2,0,2.2,0.5,3,1.4c0.8,0.9,1.2,2.1,1.2,3.6v0.6h-8.1v0.6
				c0,0.9,0.2,1.8,0.6,2.6c0.4,0.8,0.9,1.4,1.5,1.9c0.7,0.5,1.4,0.7,2.1,0.7c0.7,0,1.3-0.1,1.9-0.4s1-0.7,1.4-1.2l0.4,0.3
				C104.1,83.6,102.9,84.2,101.3,84.2z M101.1,72.8c-1.1,0-1.9,0.4-2.7,1.3c-0.7,0.8-1.2,1.9-1.3,3.2h7.5v-0.1
				c0-0.8-0.2-1.5-0.5-2.2c-0.3-0.7-0.7-1.2-1.3-1.6S101.8,72.8,101.1,72.8z"/>
			<path class="st4" d="M111.4,83.6c1,0,1.8-0.3,2.4-0.8c0.6-0.6,1-1.3,1-2.3h0.5c-0.1,1.1-0.5,2-1.2,2.7c-0.8,0.7-1.7,1-2.8,1
				c-1.4,0-2.4-0.5-3.2-1.6s-1.2-2.5-1.2-4.3V78c0-1.8,0.4-3.2,1.2-4.2s1.9-1.6,3.2-1.6c1.1,0,2.1,0.4,2.8,1.1
				c0.7,0.7,1.1,1.7,1.2,2.9h-0.5c0-1-0.4-1.9-1-2.5c-0.6-0.6-1.5-0.9-2.5-0.9c-1.2,0-2.2,0.5-2.8,1.4s-1,2.2-1,3.9v0.4
				c0,1.6,0.3,2.9,1,3.8C109.3,83.1,110.2,83.6,111.4,83.6z"/>
			<path class="st4" d="M121.8,83.6c1,0,1.8-0.3,2.4-0.8c0.6-0.6,1-1.3,1-2.3h0.5c-0.1,1.1-0.5,2-1.2,2.7c-0.8,0.7-1.7,1-2.8,1
				c-1.4,0-2.4-0.5-3.2-1.6s-1.2-2.5-1.2-4.3V78c0-1.8,0.4-3.2,1.2-4.2s1.9-1.6,3.2-1.6c1.1,0,2.1,0.4,2.8,1.1
				c0.7,0.7,1.1,1.7,1.2,2.9h-0.5c0-1-0.4-1.9-1-2.5c-0.6-0.6-1.5-0.9-2.5-0.9c-1.2,0-2.2,0.5-2.8,1.4s-1,2.2-1,3.9v0.4
				c0,1.6,0.3,2.9,1,3.8C119.7,83.1,120.6,83.6,121.8,83.6z"/>
			<path class="st4" d="M128.4,68.8c0-0.2,0.1-0.3,0.2-0.4c0.1-0.1,0.2-0.2,0.4-0.2c0.2,0,0.3,0.1,0.4,0.2c0.1,0.1,0.2,0.3,0.2,0.4
				c0,0.2-0.1,0.3-0.2,0.4c-0.1,0.1-0.2,0.2-0.4,0.2c-0.2,0-0.3-0.1-0.4-0.2C128.5,69.1,128.4,68.9,128.4,68.8z M129.2,84h-0.5V72.4
				h0.5V84z"/>
			<path class="st4" d="M131.9,78c0-1.1,0.2-2.1,0.6-3c0.4-0.9,1-1.6,1.7-2.1s1.5-0.7,2.5-0.7c0.9,0,1.7,0.2,2.4,0.7
				c0.7,0.5,1.3,1.2,1.7,2c0.4,0.9,0.6,1.9,0.6,3v0.5c0,1.1-0.2,2.1-0.6,3c-0.4,0.9-1,1.6-1.7,2.1c-0.7,0.5-1.5,0.7-2.5,0.7
				c-0.9,0-1.7-0.2-2.5-0.7c-0.7-0.5-1.3-1.2-1.7-2c-0.4-0.9-0.6-1.9-0.6-2.9V78z M132.5,78.4c0,1,0.2,1.8,0.5,2.6
				c0.4,0.8,0.9,1.4,1.5,1.9c0.6,0.4,1.4,0.7,2.2,0.7c1.2,0,2.2-0.5,3-1.5c0.8-1,1.2-2.3,1.2-3.8V78c0-0.9-0.2-1.8-0.5-2.6
				c-0.4-0.8-0.9-1.4-1.5-1.9c-0.6-0.5-1.4-0.7-2.2-0.7c-1.2,0-2.2,0.5-3,1.5c-0.8,1-1.2,2.3-1.2,3.8V78.4z"/>
			<path class="st4" d="M144.6,75.1c0.4-0.9,0.9-1.6,1.6-2.1c0.7-0.5,1.4-0.8,2.3-0.8c1.2,0,2,0.4,2.6,1.1s0.8,1.8,0.9,3.2V84h-0.5
				v-7.6c0-1.2-0.2-2.2-0.7-2.7c-0.5-0.6-1.2-0.9-2.2-0.9c-0.9,0-1.7,0.4-2.4,1.1c-0.7,0.7-1.1,1.6-1.4,2.7V84H144V72.4h0.5V75.1z"
				/>
			<path class="st4" d="M159.2,84.2c-0.9,0-1.7-0.3-2.4-0.8c-0.7-0.5-1.3-1.2-1.7-2.1s-0.6-1.8-0.6-2.9V78c0-1.1,0.2-2,0.6-2.9
				c0.4-0.9,1-1.6,1.7-2.1c0.7-0.5,1.5-0.7,2.3-0.7c1.2,0,2.2,0.5,3,1.4c0.8,0.9,1.2,2.1,1.2,3.6v0.6h-8.1v0.6
				c0,0.9,0.2,1.8,0.6,2.6c0.4,0.8,0.9,1.4,1.5,1.9c0.7,0.5,1.4,0.7,2.1,0.7c0.7,0,1.3-0.1,1.9-0.4s1-0.7,1.4-1.2l0.4,0.3
				C161.9,83.6,160.7,84.2,159.2,84.2z M159,72.8c-1.1,0-1.9,0.4-2.7,1.3c-0.7,0.8-1.2,1.9-1.3,3.2h7.5v-0.1c0-0.8-0.2-1.5-0.5-2.2
				c-0.3-0.7-0.7-1.2-1.3-1.6S159.6,72.8,159,72.8z"/>
			<path class="st4" d="M172.3,81.1c0-1.4-1.1-2.4-3.4-2.9c-1.3-0.3-2.3-0.7-2.8-1.2c-0.5-0.5-0.8-1.1-0.8-2c0-0.8,0.3-1.5,1-2.1
				c0.7-0.5,1.5-0.8,2.6-0.8c1.2,0,2.1,0.3,2.8,0.9c0.7,0.6,1.1,1.4,1.1,2.4h-0.6c0-0.8-0.3-1.4-0.9-1.9c-0.6-0.5-1.4-0.8-2.4-0.8
				c-0.9,0-1.7,0.2-2.3,0.7s-0.8,1-0.8,1.7c0,0.5,0.1,0.9,0.3,1.2c0.2,0.3,0.5,0.6,1,0.8c0.5,0.2,1.1,0.5,2,0.7
				c0.9,0.2,1.6,0.5,2.1,0.8c0.5,0.3,0.9,0.7,1.1,1.1c0.2,0.4,0.3,0.9,0.3,1.5c0,0.9-0.3,1.6-1.1,2.2c-0.7,0.6-1.6,0.8-2.8,0.8
				c-1.2,0-2.2-0.3-2.9-0.9s-1.1-1.3-1.1-2.3h0.5c0.1,0.8,0.4,1.4,1,1.9c0.6,0.5,1.5,0.7,2.5,0.7c1,0,1.8-0.2,2.4-0.7
				C172,82.4,172.3,81.8,172.3,81.1z"/>
		</g>
		<g class="st5">
			<path class="st6" d="M94.6,119.1H94v-6.5l-1.8,0.7v-0.6l2.3-0.9h0.1V119.1z"/>
			<path class="st6" d="M100.8,119.1h-0.6v-6.5l-1.8,0.7v-0.6l2.3-0.9h0.1V119.1z"/>
		</g>
		<g class="st5">
			<path class="st6" d="M110.8,119.1v-7.2h1.9c0.6,0,1.1,0.1,1.5,0.4c0.4,0.3,0.8,0.7,1,1.2s0.4,1.1,0.4,1.7v0.7
				c0,0.6-0.1,1.2-0.4,1.7c-0.2,0.5-0.6,0.9-1,1.2c-0.4,0.3-1,0.4-1.5,0.4H110.8z M111.3,112.4v6.2h1.3c0.7,0,1.3-0.3,1.7-0.8
				c0.4-0.5,0.6-1.2,0.6-2.1v-0.6c0-0.8-0.2-1.5-0.6-2c-0.4-0.5-1-0.8-1.7-0.8H111.3z"/>
			<path class="st6" d="M121.8,115.6h-3.2v3h3.6v0.5H118v-7.2h4.2v0.5h-3.6v2.7h3.2V115.6z"/>
		</g>
		<g class="st5">
			<path class="st6" d="M133.2,117h-3.1l-0.7,2h-0.6l2.6-7.2h0.5l2.6,7.2h-0.6L133.2,117z M130.3,116.5h2.7l-1.4-3.9L130.3,116.5z"
				/>
		</g>
		<g class="st5">
			<path class="st6" d="M138.3,119.1v-7.2h2c0.7,0,1.3,0.2,1.7,0.5c0.4,0.3,0.6,0.8,0.6,1.4c0,0.4-0.1,0.7-0.3,1
				c-0.2,0.3-0.5,0.5-0.8,0.6c0.4,0.1,0.7,0.3,1,0.6c0.2,0.3,0.4,0.7,0.4,1.1c0,0.6-0.2,1.1-0.6,1.5c-0.4,0.4-0.9,0.5-1.6,0.5H138.3
				z M138.8,115.1h1.6c0.5,0,0.8-0.1,1.1-0.4c0.3-0.2,0.4-0.6,0.4-1c0-0.5-0.1-0.8-0.4-1c-0.3-0.2-0.7-0.3-1.2-0.3h-1.4V115.1z
				 M138.8,115.6v3h1.7c0.5,0,0.9-0.1,1.2-0.4s0.4-0.6,0.4-1.1c0-0.4-0.1-0.8-0.4-1.1c-0.3-0.3-0.7-0.4-1.1-0.4H138.8z"/>
			<path class="st6" d="M147.6,116.1h-2v3h-0.6v-7.2h2.2c0.7,0,1.3,0.2,1.7,0.6c0.4,0.4,0.6,0.9,0.6,1.6c0,0.5-0.1,0.9-0.4,1.2
				c-0.3,0.4-0.6,0.6-1,0.7l1.7,3.1v0.1h-0.6L147.6,116.1z M145.7,115.5h1.8c0.5,0,0.9-0.1,1.2-0.4c0.3-0.3,0.4-0.7,0.4-1.1
				c0-0.5-0.2-0.9-0.5-1.2c-0.3-0.3-0.7-0.4-1.3-0.4h-1.6V115.5z"/>
		</g>
		<g class="st5">
			<path class="st6" d="M154.7,119.1h-0.6v-7.2h0.6V119.1z"/>
		</g>
		<g class="st5">
			<path class="st6" d="M159.1,118.6h3.3v0.5h-3.9v-7.2h0.6V118.6z"/>
		</g>
		<g class="st5">
			<path class="st6" d="M90.8,101c-0.5,0.5-1.1,1-2,1.3c-0.9,0.3-1.8,0.5-2.9,0.5c-1.6,0-2.9-0.5-3.8-1.6c-1-1-1.5-2.5-1.5-4.4
				l0-1.1c0-1.3,0.2-2.4,0.6-3.4c0.4-1,1-1.7,1.8-2.2s1.7-0.8,2.8-0.8c1.5,0,2.7,0.4,3.5,1.1c0.8,0.7,1.3,1.9,1.5,3.3h-2.8
				c-0.1-0.7-0.3-1.3-0.7-1.6c-0.3-0.3-0.8-0.5-1.4-0.5c-0.7,0-1.3,0.3-1.7,1s-0.6,1.6-0.6,2.9v0.8c0,1.3,0.2,2.3,0.6,2.9
				c0.4,0.7,1.1,1,2,1c0.8,0,1.3-0.2,1.7-0.5v-2h-2v-2.2h5V101z"/>
			<path class="st6" d="M100.1,97h-4.6v3.1h5.5v2.4h-8.4V89.5h8.4V92h-5.5v2.8h4.6V97z"/>
			<path class="st6" d="M112.3,102.6h-2.9l-4.3-8.1v8.1h-2.9V89.5h2.9l4.3,8.1v-8.1h2.9V102.6z"/>
			<path class="st6" d="M121.8,97h-4.6v3.1h5.5v2.4h-8.4V89.5h8.4V92h-5.5v2.8h4.6V97z"/>
			<path class="st6" d="M128.4,98h-1.6v4.6h-2.9V89.5h4.8c1.5,0,2.6,0.3,3.4,1s1.2,1.7,1.2,2.9c0,0.9-0.2,1.7-0.5,2.3
				s-0.9,1.1-1.6,1.5l2.6,5.3v0.1h-3.2L128.4,98z M126.8,95.5h1.9c0.6,0,1-0.2,1.3-0.5s0.4-0.8,0.4-1.3c0-0.6-0.1-1-0.4-1.3
				c-0.3-0.3-0.7-0.5-1.3-0.5h-1.9V95.5z"/>
			<path class="st6" d="M142,100.1h-4l-0.7,2.4h-3.2l4.5-13.1h2.8l4.5,13.1h-3.2L142,100.1z M138.7,97.7h2.6l-1.3-4.5L138.7,97.7z"
				/>
			<path class="st6" d="M149.7,100.2h5.1v2.4h-8.1V89.5h2.9V100.2z"/>
			<path class="st6" d="M163.7,97H159v3.1h5.5v2.4h-8.4V89.5h8.4V92H159v2.8h4.6V97z"/>
			<path class="st6" d="M172,99.1c0-0.5-0.2-0.8-0.5-1.1s-0.8-0.5-1.6-0.8c-0.8-0.3-1.4-0.5-1.9-0.8c-1.6-0.8-2.4-2-2.4-3.4
				c0-0.7,0.2-1.4,0.6-1.9c0.4-0.6,1-1,1.7-1.3c0.7-0.3,1.5-0.5,2.4-0.5c0.9,0,1.7,0.2,2.4,0.5s1.2,0.8,1.6,1.4
				c0.4,0.6,0.6,1.3,0.6,2.1H172c0-0.5-0.2-0.9-0.5-1.2c-0.3-0.3-0.7-0.4-1.2-0.4c-0.5,0-0.9,0.1-1.2,0.4c-0.3,0.2-0.5,0.6-0.5,0.9
				c0,0.3,0.2,0.6,0.5,0.9c0.3,0.3,0.9,0.6,1.8,0.8c0.8,0.3,1.5,0.6,2.1,0.9c1.3,0.8,2,1.9,2,3.4c0,1.1-0.4,2-1.2,2.7s-1.9,1-3.3,1
				c-1,0-1.9-0.2-2.7-0.6c-0.8-0.4-1.4-0.9-1.8-1.6c-0.4-0.7-0.6-1.4-0.6-2.3h3c0,0.7,0.2,1.2,0.5,1.5s0.9,0.5,1.7,0.5
				c0.5,0,0.9-0.1,1.2-0.3C171.9,99.8,172,99.5,172,99.1z"/>
		</g>
	</g>
</g>
</svg>
