<svg id="Capa_1" data-name="Capa 1" xmlns="http://www.w3.org/2000/svg" viewBox="0 0 125.96 91.85"><defs><style>.cls-1{fill:#fff;}</style></defs><path class="cls-1" d="M918.6,572.41a4.82,4.82,0,0,1-4,2,5,5,0,0,1-4.08-2,7.92,7.92,0,0,1-1.61-5.12,8.14,8.14,0,0,1,1.61-5.17,5,5,0,0,1,4.08-2,4.83,4.83,0,0,1,4,2,9.31,9.31,0,0,1,0,10.35M927,553.77a17.49,17.49,0,0,0-24.77,0q-4.72,5.15-4.72,13.52t4.72,13.46a17.47,17.47,0,0,0,24.77,0q4.72-5.14,4.72-13.46T927,553.77" transform="translate(-897.52 -494.07)"/><polygon class="cls-1" points="62.88 61.95 58.61 54.56 58.61 73.39 48.45 54.56 36.73 54.56 36.73 91.83 48.39 91.83 48.34 73.62 58.2 91.83 70.17 91.83 70.17 60.62 62.88 61.95"/><polygon class="cls-1" points="125.96 81.39 115.45 81.39 115.45 77.95 124.74 77.95 124.74 68.2 115.45 68.2 115.45 64.6 125.66 64.6 125.66 54.56 103.46 54.56 103.46 91.85 125.96 91.85 125.96 81.39"/><path class="cls-1" d="M986.29,564.26a3.13,3.13,0,0,1-2.41,1h-2.19v-6.57h2.7a2.59,2.59,0,0,1,2,.86,3,3,0,0,1,.81,2.11,3.77,3.77,0,0,1-.89,2.63m8.78-11.88a12,12,0,0,0-9.11-3.77l-16.24,5.63v31.67h12V574.68h6.24a9.66,9.66,0,0,0,7.76-3.48,13.75,13.75,0,0,0,2.94-9.18,13.43,13.43,0,0,0-3.56-9.64" transform="translate(-897.52 -494.07)"/><polygon class="cls-1" points="89.98 53.44 86.61 53.44 86.61 51.44 87.98 51.44 87.98 2 38.6 2 38.6 51.44 58.88 51.44 58.88 53.44 36.6 53.44 36.6 0 89.98 0 89.98 53.44"/><path class="cls-1" d="M934.26,495.08V512.9a77.66,77.66,0,0,0,1.83,9.09c1.32,5.08,1.79,9.62,6.09,8.91,0,0,2.84-.26,3.35-2.11a7.39,7.39,0,0,0,5.19.91,6.27,6.27,0,0,0,3.61-2.57s1.27,4.93,1.82,6.15,3,2.12,4.93,1.66,4.07-3.33,4.07-3.33a5.14,5.14,0,0,0,6,1.75s3.77-1.74,3.2-4.4-5.63-23.59-5.63-23.59l-3.29,1,5.24,20.9s.91,3-1,3.51a1.88,1.88,0,0,1-2.22-1.16c-.48-1.53-3.87-15.74-3.87-15.74l-3.72,1.08L962.69,527s1.06,3.56-1.32,4.4c0,0-2.85,1-3.67-2.38s-3.28-12.89-3.28-12.89l-3.94,1,1.28,4.52s1,3.49-1.16,4.4a2.57,2.57,0,0,1-3.65-1.66c-.27-1-1.47-6.32-1.47-6.32l-3.39.62,1.27,5.75s.61,2.12-.92,2.52-2-1.29-2.2-1.86a100.43,100.43,0,0,1-2.87-9.82c-.43-2.55-1.68-11.19-1.73-12.92a24.19,24.19,0,0,1,.46-7.3Z" transform="translate(-897.52 -494.07)"/><path class="cls-1" d="M974.76,507.29l1.51,5.93s5.35-7,3.31-12.61a18.11,18.11,0,0,0-3.26-5.53h-4.63s4.47,4.42,4.32,7.9-1.25,4.31-1.25,4.31" transform="translate(-897.52 -494.07)"/><polygon class="cls-1" points="71.83 38.45 72.19 38.1 67.91 35.45 67.62 35.61 71.83 38.45"/><polygon class="cls-1" points="67.39 35.73 61.98 38.67 64.92 39.24 67.39 35.73"/><polygon class="cls-1" points="77.84 12.34 71.51 13.94 72.09 16.97 76.27 15.86 85.91 54.99 62.68 60.99 55.38 33.45 57.72 32.31 57.07 30.61 52.68 34.66 60.99 64.51 89.35 57.41 77.84 12.34"/></svg>